/* XPM */
static char *_a26d108bab14abecf355829e85e9a55bBp4pFMmZ95L8dCw[] = {
/* columns rows colors chars-per-pixel */
"80 80 78 1 ",
"  c None",
". c black",
"X c black",
"o c #040302",
"O c #F2B700",
"+ c #F4BA00",
"@ c #F3B900",
"# c #F4B700",
"$ c #EEB300",
"% c #ECB705",
"& c #EDB706",
"* c #EABA00",
"= c #F3BC00",
"- c #F5BD00",
"; c #F6BA00",
": c #F4F6EB",
"> c #F5F7F5",
", c #F4F7F6",
"< c #F6F7F8",
"1 c #F4F8F6",
"2 c #CC8700",
"3 c #CD8900",
"4 c #D08800",
"5 c #CA8702",
"6 c #020000",
"7 c #F6B800",
"8 c #F7F8F8",
"9 c #EFB801",
"0 c #080600",
"q c #F7F9ED",
"w c #F7F9F0",
"e c #F1B704",
"r c #F5F8FB",
"t c #CE8600",
"y c #F3BA0A",
"u c #F6F8F6",
"i c #F3B90E",
"p c #DCB604",
"a c #CB8700",
"s c #F1B803",
"d c #EAB612",
"f c #ECB50B",
"g c #EAB609",
"h c #EABA0C",
"j c #EBBA0B",
"k c #EDBA09",
"l c #F5C106",
"z c #F4BD0C",
"x c #F4BD08",
"c c #EEB500",
"v c #F4F8E3",
"b c #F6FAEB",
"n c #F5F8EF",
"m c #F7FCE8",
"M c #C78600",
"N c #C98600",
"B c #C8860C",
"V c #F4BD07",
"C c #F3F8F5",
"Z c #F3F9F9",
"A c #F3B803",
"S c #F3BD06",
"D c #CE8C00",
"F c #F3BD0A",
"G c #F3F9F3",
"H c #F4F7F5",
"J c #F4B912",
"K c #F4F8F3",
"L c #F5B907",
"P c #E7B80A",
"I c #EBB501",
"U c #EDF8F8",
"Y c #F3F8F8",
"T c #EEB918",
"R c #F1B70B",
"E c #F0B70D",
"W c #EFB812",
"Q c white",
/* pixels */
"                                                                                ",
"                                                                                ",
"                                                                                ",
"                                                                                ",
"                                                                                ",
"                                                                                ",
"                                                                                ",
"                                                                                ",
"                                                                                ",
"                                                                                ",
"                                                                                ",
"                               XX                                               ",
"                                                                                ",
"                                                                                ",
"                                                                                ",
"                               9iiiiiiiiiiiiiiii9                               ",
"                               9P+ooOoo++oo+oooo9                               ",
"                               9$OO+o+++o++o+++x9                               ",
"                               9$OOO++++o++o+++x9                               ",
"                               9POOOo+oo+o+o+oox9                               ",
"                           mmmmNYYYYYY#####oo++8mmmmmm                          ",
"                           P---Y;U<,CcM121p#++++OOOOOS                          ",
"                           POOOYb:y>>cp1221#+++++++++S                          ",
"                           POOOYG>>>>cM2311#+++++++++S                          ",
"                           iOOOYJ:>>7cr2211#+++++o+++S                          ",
"                           ioooY:,,7ycp2222#OOOO+++++S                          ",
"                     mSSSSSccccccccccYr1rr2SSSSio++++PSSSSSm                    ",
"                     m=6-6o;<,e:N1331r3131212322o++++++++Otm                    ",
"                     m--O6o;,y7:N1213rr31323121So+++++++8+tm                    ",
"                     m-66Ooce,7:Nr22r33r2122212So+++++o+++tm                    ",
"                     m-@6@P;e77yNrrr33rrp411p1p2oO++O+o+++Km      X5 55         ",
"               9iiiiic;;cc;YYYYYN2233S##########SSSSSi+++++fiiiiS 55 55         ",
"               98@OO@cU>>y,Y32r13r223S+*8++8++8oS2231SO++++o++++i   X           ",
"         55    9oO@O@cUy>y,Yr33223223S++++++8o+821311SO++++o+o++i               ",
"         55    9o@OOOc,>:>yY222222223S+++oo++++o31r21SO+8+++o+++i               ",
"               9o@O@OcJ::yqY132332r33S+*8++8x++o3rr31SOoooo+ooo@i               ",
"               9o@@OOcc;;;cY123131323S#P#P#o+++oSSSSSi#####x++++i               ",
"               9oO@oO#MmMrr133r2r323332322r#+o+++@O+@#11131#+++oi               ",
"               98++o@#113r3312r223113333311#+++++++Oo#33322#++++i               ",
"               98++Oo#331r1rr221323313r333r#++Ooo@oo+#r232r#o++oi               ",
"               98++@+#r1133131r313223221111#++o+o++o@#r3111#+++oi               ",
"         XX    9o+++O#r1r11rr1r1221311rr1rpP+++oooooo#rr1r1#o+o+i               ",
"         55    98+++o###P####P##322r3S###P#o+o+Ycccccc#####x+oo+i               ",
"               98++oo+++++o+++O+S2212S+++++oo+oYV<CUec@O++o+o++oi               ",
"               98++++o++8+++++++S2221S@++++o+++Y>,<<<cO@+++o+oo+i               ",
"         55    98++++++++++++++oS2212SOoo++O+o@Y><U<Uc@O++++++++i               ",
"         55    98O+++++++++++oooS2222S++o++++@@YG<UCUc@O++++++++i               ",
"               9$a888++++++8++ooS2222S+o+o+YYYYY;JJJVc+++++a+8++i               ",
"               999999mO+++++o++ooooooo++oOocJGGbYYYYYY+O++Zm99999               ",
"                     mO++oo+8+++o++o+++o@ooc<>>JY@O@O++oOOlm                    ",
"                     mO+++++++oooo++++++O@@c<<<JY@@OO@+o@Olm                    ",
"                     m=++o++8++8++++++++OO@;>><JYO@OOo+o@+Km                    ",
"                     mOa+++++o+++++++YYYYYY;>>>GY@@@O#iiiiP9                    ",
"                 55X mNNmmmPo++o+++++cCU,UUcccccY@@@+S          55              ",
"                 55X       i+++++++++cC<<<UY@@@@@@OO+S          55              ",
"                           i++8oo++++cC<<<CYO+@O@@@o@S                          ",
"                           i+o+o+o+++c<<<<CYOOOO@O+@+S                          ",
"                           iOOOOo++++cCCeCCY@@@O----OS                          ",
"                           mmmmmo@O++YcccccY@++ommmmmm                          ",
"                               9#OO++ooooo++@+oo9                               ",
"                               9$OO++++Oo++oooOo9                               ",
"                               9$+O@OOoO+@+oO+@x9                               ",
"                               9P+OO@OOOOO+++++x9                               ",
"                               9Poxoooooo88oooo#9                               ",
"                               999999999999999999                               ",
"                                                                                ",
"                                                                                ",
"                                                                                ",
"                               XX                                               ",
"                                                                                ",
"                                                                                ",
"                                                                                ",
"                                                                                ",
"                                                                                ",
"                                                                                ",
"                                                                                ",
"                                                                                ",
"                                                                                ",
"                                                                                ",
"                                                                                "
};
